<?xml version="1.0" encoding="UTF-8"?>
<svg id="Layer_1" data-name="Layer 1" xmlns="http://www.w3.org/2000/svg" viewBox="0 0 22.33 22.38">
  <defs>
    <style>
      .cls-1 {
        fill: none;
      }

      .cls-1, .cls-2 {
        stroke: #231f20;
        stroke-linecap: round;
        stroke-linejoin: round;
        stroke-width: .7px;
      }

      .cls-3 {
        fill: #ff56bd;
        stroke-width: 0px;
      }

      .cls-2 {
        fill: #fff;
      }
    </style>
  </defs>
  <path class="cls-3" d="m21.97,3.2v7.16h-3.93v10.43c0,.69-.56,1.24-1.24,1.24H5.52c-.69,0-1.24-.56-1.24-1.24v-10.43H.35V3.2C.35,1.66,1.6.4,3.15.4l4.47-.05c.9.83,2.2,1.39,3.59,1.39s2.7-.56,3.59-1.39l4.38.05c1.54,0,2.8,1.25,2.8,2.8h-.01Z"/>
  <path class="cls-2" d="m14.81.35v.05c0,1.98-1.61,3.59-3.59,3.59s-3.59-1.61-3.59-3.59v-.05s.04.03.05.05c.9.83,2.16,1.34,3.55,1.34s2.65-.51,3.55-1.34c.01-.01.03-.04.05-.05Z"/>
  <path class="cls-1" d="m4.27,12.09v-5.67"/>
  <path class="cls-1" d="m18.04,12.09v-5.67"/>
  <path class="cls-1" d="m21.97,3.2v7.16h-3.93v10.43c0,.69-.56,1.24-1.24,1.24H5.52c-.69,0-1.24-.56-1.24-1.24v-10.43H.35V3.2C.35,1.66,1.6.4,3.15.4l4.47-.05c.9.83,2.2,1.39,3.59,1.39s2.7-.56,3.59-1.39l4.38.05c1.54,0,2.8,1.25,2.8,2.8h-.01Z"/>
</svg>