<?xml version="1.0" encoding="UTF-8"?>
<svg id="Layer_1" data-name="Layer 1" xmlns="http://www.w3.org/2000/svg" viewBox="0 0 20.81 22.27">
  <defs>
    <style>
      .cls-1 {
        fill: none;
      }

      .cls-1, .cls-2 {
        stroke: #231f20;
        stroke-linecap: round;
        stroke-linejoin: round;
        stroke-width: .7px;
      }

      .cls-3 {
        fill: #ff56bd;
        stroke-width: 0px;
      }

      .cls-2 {
        fill: #fff;
      }
    </style>
  </defs>
  <path class="cls-2" d="m13.69,7.98v12.6c0,.74-.59,1.34-1.34,1.34H1.69c-.73,0-1.33-.59-1.33-1.34V7.98c0-.14,0-.28.03-.42.19-1.36,1.31-2.45,2.7-2.58v-2.03h7.89v2.03c1.39.13,2.51,1.2,2.7,2.58.02.14.03.28.03.42h-.02Z"/>
  <path class="cls-2" d="m10.78.35H3.24c-.64,0-1.17.52-1.17,1.17v1.1c0,.64.52,1.17,1.17,1.17h7.54c.64,0,1.17-.52,1.17-1.17v-1.1c0-.64-.52-1.17-1.17-1.17Z"/>
  <path class="cls-3" d="m13.69,7.98v11.26H.35V7.98c0-.14,0-.28.04-.42h13.28c.02.14.03.28.03.42h-.01Z"/>
  <path class="cls-1" d="m13.69,7.98v11.26H.35V7.98c0-.14,0-.28.04-.42h13.28c.02.14.03.28.03.42h-.01Z"/>
  <path class="cls-2" d="m15.81,10.19h-.01c-.91-.49-2.04-.14-2.52.78l-2.26,4.29c-.48.91-.13,2.04.78,2.52h.01c.91.49,2.04.14,2.52-.78l2.26-4.29c.48-.91.13-2.04-.78-2.52Z"/>
  <path class="cls-1" d="m12.08,13.25l3.25,1.72"/>
  <path class="cls-2" d="m18.35,5.1c-.41-.69-1.29-.92-1.98-.51-.68.41-.91,1.29-.5,1.98l1.9,3.21c.41.69,1.29.92,1.98.51s.91-1.29.5-1.98l-1.9-3.21Z"/>
  <path class="cls-1" d="m16.88,8.28l2.44-1.45"/>
</svg>