<?xml version="1.0" encoding="UTF-8"?>
<svg id="Layer_1" data-name="Layer 1" xmlns="http://www.w3.org/2000/svg" viewBox="0 0 21.93 21.9">
  <defs>
    <style>
      .cls-1 {
        fill: #ff56bd;
      }

      .cls-1, .cls-2 {
        stroke: #231f20;
        stroke-linecap: round;
        stroke-linejoin: round;
        stroke-width: .7px;
      }

      .cls-2 {
        fill: #fff;
      }
    </style>
  </defs>
  <path class="cls-1" d="m7.4,13.32h-1.62c-.41,0-.73.33-.73.73v6.76c0,.41.33.73.73.73h1.62c.41,0,.73-.33.73-.73v-6.76c0-.41-.33-.73-.73-.73Z"/>
  <path class="cls-1" d="m4.41,13.92h.63v7.02h-.63c-1.27,0-2.31-1.04-2.31-2.31v-2.4c0-1.27,1.04-2.31,2.31-2.31Z"/>
  <path class="cls-2" d="m10.97.36C5.11.36.36,5.04.35,10.83c.16,5.55.72,6.18,1.75,8.09l.03-3.05s0-3.53-.01-5.12C2.12,5.72,5.95,2.03,11.05,2.03s8.88,3.71,8.88,8.74l-.12,4.84v3.51s1.81-2.18,1.77-8.29C21.58,5.04,16.84.35,10.97.35h0Z"/>
  <path class="cls-1" d="m14.5,21.55h1.62c.41,0,.74-.33.74-.74v-6.75c0-.41-.33-.74-.74-.74h-1.62c-.41,0-.74.33-.74.74v6.75c0,.41.33.74.74.74Z"/>
  <path class="cls-1" d="m17.49,20.95h-.63v-7.02h.63c1.27,0,2.31,1.04,2.31,2.31v2.4c0,1.27-1.04,2.31-2.31,2.31Z"/>
</svg>