<?xml version="1.0" encoding="UTF-8"?>
<svg id="Layer_1" data-name="Layer 1" xmlns="http://www.w3.org/2000/svg" viewBox="0 0 22.38 22.28">
  <defs>
    <style>
      .cls-1 {
        fill: none;
        stroke: #231f20;
        stroke-linecap: round;
        stroke-linejoin: round;
        stroke-width: .7px;
      }

      .cls-2 {
        fill: #ff56bd;
        stroke-width: 0px;
      }
    </style>
  </defs>
  <path class="cls-2" d="m22.01,3.2v17.63c0,.62-.5,1.11-1.11,1.11h-3.84c-.62,0-1.11-.5-1.11-1.11v-4.93h1.88c1.26,0,2.28-1.02,2.28-2.27V5.1c0-1.26-1.02-2.27-2.28-2.27h-1.19c-1.09,3.35-3.96,5.89-7.49,6.51-.48-.85-1.34-1.34-2.17-1.14-1.05.26-1.63,1.52-1.32,2.82.31,1.31,1.42,2.16,2.47,1.9.19-.05.36-.13.52-.23v8.07c0,.64-.52,1.17-1.17,1.17H1.52c-.64,0-1.17-.53-1.17-1.17v-6.29c0-3.99,4.4-3.28,4.4-7.11V3.19c0-1.56,1.27-2.84,2.83-2.84h11.61c1.56,0,2.83,1.27,2.83,2.84h-.01Z"/>
  <path class="cls-1" d="m22.01,3.2v17.63c0,.62-.5,1.11-1.11,1.11h-3.84c-.62,0-1.11-.5-1.11-1.11v-4.93h1.88c1.26,0,2.28-1.02,2.28-2.27V5.1c0-1.26-1.02-2.27-2.28-2.27h-1.19c-1.09,3.35-3.96,5.89-7.49,6.51-.48-.85-1.34-1.34-2.17-1.14-1.05.26-1.63,1.52-1.32,2.82.31,1.31,1.42,2.16,2.47,1.9.19-.05.36-.13.52-.23v8.07c0,.64-.52,1.17-1.17,1.17H1.52c-.64,0-1.17-.53-1.17-1.17v-6.29c0-3.99,4.4-3.28,4.4-7.11V3.19c0-1.56,1.27-2.84,2.83-2.84h11.61c1.56,0,2.83,1.27,2.83,2.84h-.01Z"/>
  <path class="cls-1" d="m17.42,15.9h-6.87"/>
</svg>