<?xml version="1.0" encoding="UTF-8"?>
<svg id="Layer_1" data-name="Layer 1" xmlns="http://www.w3.org/2000/svg" viewBox="0 0 21.89 21.96">
  <defs>
    <style>
      .cls-1 {
        fill: none;
      }

      .cls-1, .cls-2 {
        stroke: #231f20;
        stroke-linecap: round;
        stroke-linejoin: round;
        stroke-width: .7px;
      }

      .cls-3 {
        fill: #ff56bd;
        stroke-width: 0px;
      }

      .cls-2 {
        fill: #fff;
      }
    </style>
  </defs>
  <path class="cls-2" d="m19.38,15.85c-1.68,2.89-4.82,4.83-8.41,4.83-5.37,0-9.73-4.35-9.73-9.73S5.59,1.23,10.97,1.23c2.67,0,5.1,1.07,6.85,2.82v11.8h1.56Z"/>
  <path class="cls-3" d="m17.82,7.12v7.67c-1.34,2.4-3.91,4.02-6.85,4.02-4.34,0-7.85-3.51-7.85-7.85s3.51-7.85,7.85-7.85c2.94,0,5.51,1.62,6.85,4.01Z"/>
  <path class="cls-1" d="m17.82,7.12v7.67c-1.34,2.4-3.91,4.02-6.85,4.02-4.34,0-7.85-3.51-7.85-7.85s3.51-7.85,7.85-7.85c2.94,0,5.51,1.62,6.85,4.01Z"/>
  <path class="cls-2" d="m.35,18.43h17.93v3.19H3.53c-1.76,0-3.18-1.42-3.18-3.19Z"/>
  <path class="cls-2" d="m20.37,11.93h-5.54c-.64,0-1.17.52-1.17,1.17v7.35c0,.64.52,1.17,1.17,1.17h5.54c.64,0,1.17-.52,1.17-1.17v-7.35c0-.64-.52-1.17-1.17-1.17Z"/>
  <path class="cls-2" d="m20.53,10.03h-5.86v1.9h5.86v-1.9Z"/>
  <path class="cls-2" d="m19.94,10.03h-4.67V3.92l4.67-3.27v9.37Z"/>
  <path class="cls-2" d="m18.16,2.99c1.25-1,2.01-2.12,1.7-2.51-.31-.39-1.57.1-2.82,1.1-1.25,1-2.01,2.12-1.7,2.51.31.39,1.57-.1,2.82-1.1Z"/>
</svg>