<?xml version="1.0" encoding="UTF-8"?>
<svg id="Layer_1" data-name="Layer 1" xmlns="http://www.w3.org/2000/svg" viewBox="0 0 16.25 22.28">
  <defs>
    <style>
      .cls-1 {
        fill: none;
        stroke: #231f20;
        stroke-linecap: round;
        stroke-linejoin: round;
        stroke-width: .7px;
      }

      .cls-2 {
        fill: #ff56bd;
      }

      .cls-2, .cls-3 {
        stroke-width: 0px;
      }

      .cls-3 {
        fill: #231f20;
      }
    </style>
  </defs>
  <path class="cls-1" d="m15.9,8.66v12.18c0,.61-.49,1.1-1.1,1.1H1.45c-.61,0-1.1-.49-1.1-1.1v-12.18c0-1.37,1.11-2.47,2.47-2.47h10.6c1.36,0,2.47,1.11,2.47,2.47Z"/>
  <path class="cls-1" d="m8.03,3.53h.19c1.43,0,2.59,1.17,2.59,2.59v.05h-5.37v-.05c0-1.44,1.17-2.59,2.59-2.59Z"/>
  <path class="cls-1" d="m9.73.35h-3.21v3.18h3.21V.35Z"/>
  <path class="cls-1" d="m13.22,4.18c1.39,0,2.52-.86,2.52-1.91s-1.13-1.91-2.52-1.91-2.52.86-2.52,1.91,1.13,1.91,2.52,1.91Z"/>
  <path class="cls-1" d="m10.7,1.94h-.97v.59h.97v-.59Z"/>
  <path class="cls-3" d="m7.36,2.33c.12,0,.21-.18.21-.4s-.09-.4-.21-.4-.21.18-.21.4.09.4.21.4Z"/>
  <path class="cls-2" d="m15.9,11.98v8.84c0,.61-.49,1.1-1.1,1.1H1.45c-.61,0-1.1-.49-1.1-1.1v-8.84c5.47-3,9.31,2.38,15.55,0Z"/>
  <path class="cls-1" d="m15.9,11.98v8.84c0,.61-.49,1.1-1.1,1.1H1.45c-.61,0-1.1-.49-1.1-1.1v-8.84c5.47-3,9.31,2.38,15.55,0Z"/>
</svg>