<?xml version="1.0" encoding="UTF-8"?>
<svg id="Layer_1" data-name="Layer 1" xmlns="http://www.w3.org/2000/svg" viewBox="0 0 22.1 22.12">
  <defs>
    <style>
      .cls-1 {
        fill: none;
      }

      .cls-1, .cls-2 {
        stroke: #231f20;
        stroke-linecap: round;
        stroke-linejoin: round;
        stroke-width: .7px;
      }

      .cls-3 {
        fill: #ff56bd;
        stroke-width: 0px;
      }

      .cls-2 {
        fill: #fff;
      }
    </style>
  </defs>
  <path class="cls-2" d="m5.72,19.33l-1.07-.29-.65,2.43,1.07.29.65-2.43Z"/>
  <path class="cls-2" d="m17.7,21.77l1.07-.29-.65-2.43-1.07.29.65,2.43Z"/>
  <path class="cls-2" d="m14.43,9.33c-1.07-.93-2.65-.9-3.69,0-.51-1.19-1.71-2.01-3.09-1.96-1.46.06-2.64,1.07-2.99,2.41-.84-.37-1.87-.22-2.55.47-.9.9-.9,2.35,0,3.24.9.9,2.34.9,3.24,0,.13-.13.24-.28.34-.43.6.51,1.38.82,2.22.78.88-.03,1.66-.42,2.22-1,.15.28.35.55.61.77,1.18,1.03,2.96.9,3.99-.28,1.03-1.18.9-2.96-.28-3.99h-.01Z"/>
  <path class="cls-3" d="m.96,11.47h20.18c.34,0,.61.27.61.61v2.74c0,3.02-2.45,5.47-5.47,5.47H5.82c-3.02,0-5.47-2.45-5.47-5.47v-2.74c0-.34.27-.61.61-.61Z"/>
  <path class="cls-1" d="m.96,11.47h20.18c.34,0,.61.27.61.61v2.74c0,3.02-2.45,5.47-5.47,5.47H5.82c-3.02,0-5.47-2.45-5.47-5.47v-2.74c0-.34.27-.61.61-.61Z"/>
  <path class="cls-2" d="m18.7,10.9h-3.66v6.54h3.66v-6.54Z"/>
  <path class="cls-2" d="m14.12,4.83c.47,0,.85-.38.85-.85s-.38-.85-.85-.85-.85.38-.85.85.38.85.85.85Z"/>
  <path class="cls-2" d="m12.34,1.54c.33,0,.59-.27.59-.59s-.27-.6-.59-.6-.6.27-.6.6.27.59.6.59Z"/>
</svg>