<?xml version="1.0" encoding="UTF-8"?>
<svg id="Layer_1" data-name="Layer 1" xmlns="http://www.w3.org/2000/svg" viewBox="0 0 22.19 22.14">
  <defs>
    <style>
      .cls-1 {
        fill: none;
      }

      .cls-1, .cls-2 {
        stroke: #231f20;
        stroke-linecap: round;
        stroke-linejoin: round;
        stroke-width: .7px;
      }

      .cls-2 {
        fill: #ff56bd;
      }
    </style>
  </defs>
  <path class="cls-1" d="m15.12,1.77c-1.17,4.96-5.06,7.48-8.31,8.03-.44-.76-1.24-1.2-1.99-1.02-.96.22-1.5,1.35-1.21,2.52.29,1.17,1.31,1.92,2.28,1.7.18-.05.33-.12.48-.21v7.96c0,.57-.48,1.04-1.07,1.04H1.42c-.59,0-1.07-.47-1.07-1.04v-6.37c0-3.56.02-2.92.02-6.35v-3.73C.37,2.91,1.53,1.77,2.96,1.77h12.16Zm0,0c.42,0,.82.09,1.17.27"/>
  <path class="cls-1" d="m11.61,17.65h-.06"/>
  <path class="cls-1" d="m11.55,17.65v3.3c0,.47-.39.84-.86.84h-5.61"/>
  <path class="cls-2" d="m20.79,16.17c-.88,1.88-2.67,3.21-4.81,3.31-1.72.08-3.29-.63-4.38-1.83h5.09c.57,0,1.03-.45,1.03-1v-4.73h1.97s-1.97-1.99-1.97-4.81v-2.81c0-.99-.58-1.84-1.43-2.26.07-.52.13-1.08.16-1.69,5.41,3.1,6.51,11.75,4.34,15.82Z"/>
  <path class="cls-2" d="m19.69,11.92h-1.97v4.73c0,.55-.45,1-1.03,1h-5.09c-.93-1-1.52-2.33-1.6-3.83-.09-1.96.73-3.73,2.09-4.89.06-.06.1-.09.16-.14v-.02c1.91-1.55,3.48-3.29,4.01-6.73.85.42,1.43,1.27,1.43,2.26v2.81c0,2.81,1.97,4.81,1.97,4.81h.01Z"/>
</svg>